{"title":"Toy Story 3 (2010) (DIVX)(R5)(AC 3)(NL SUBS SRT) 2Lions-Team","uid":5876734,"size":1568539366,"categoryP":"video","categoryS":"movies","magnet":"?xt=urn:btih:153a5c938c4a9c96b4b543903ec30f04acce9c69&amp;dn=Toy+Story+3+%282010%29+%28DIVX%29%28R5%29%28AC+3%29%28NL+SUBS+SRT%29+2Lions-Team&amp;tr=udp%3A%2F%2Ftracker.openbittorrent.com%3A80&amp;tr=udp%3A%2F%2Fopen.demonii.com%3A1337&amp;tr=udp%3A%2F%2Ftracker.coppersurfer.tk%3A6969&amp;tr=udp%3A%2F%2Fexodus.desync.com%3A6969","seeders":1,"leechers":0,"uploader":"Pioen","files":-1,"time":1286665919,"description":"Toy Story 3 (2010)       \n  \n Vanaf 26 oktober op video\n  Verenigde Staten\nVerenigde Staten\nAnimatie / Avontuur\n103 minuten\n\ngeregisseerd door Lee Unkrich\nmet de stemmen van Tom Hanks, Tim Allen en Joan Cusack\n\nWanneer Andy gaat studeren en op kamers gaat, komen Woody, Buzz en de rest van hun speelgoedvrienden bij dagopvang Sunnyside terecht. Dit lijkt in eerste instantie een gezellige plek, onder leiding van de vriendelijke speelgoedbeer Lotso. Maar het dagverblijf blijkt helemaal niet zo prettig en dus willen Woody en de rest zo snel mogelijk weg. Maar het schijnt nog niet zo eenvoudig te zijn om het dagverblijf te verlaten.\n\nEnglish\n\nStoryline\nWoody, Buzz and the whole gang are back. As their owner Andy prepares to depart for college, his loyal toys find themselves in daycare where untamed tots with their sticky little fingers do not play nice. So, it's all for one and one for all as they join Barbie's counterpart Ken, a thespian hedgehog named Mr. Pricklepants and a pink, strawberry-scented teddy bear called Lots-o'-Huggin' Bear to plan their great escape. \n\n\n\n\n\nRELEASE: Toy.Story.3.2010.R5.XviD.AC3-NYDIC\n\nFile Size 1.46GB\n\nSOURCE: DVD9 R5 \n\nGENRE: Infantil\n\nVideo: 1721 kbps XviD\n\nAUDiO: 384 kbps AC3 6 chnls\n\nRESOLUTION: 720 x 384\n\nRUNTiME: 1h 38mn\n\nLANGUAGE: ENGLiSH\n\nSUBTiTLES: Dutch srt\n\nNu dan de R5 versie\n\nDe Video en Audio zijn gewoon prima!!\nThanks : Hannes3 \n\n\nSpotinformatie \nCategorie : Beeld \nFormaat : DivX \nBron : R5\n \nOndertitels : Nederlands (extern)\n \nGenre : Avontuur\nAnimatie\nFantasiefilm\nKinderfilm\n\nFormat                           : AVI\nFormat/Info                      : Audio Video Interleave\nFile size                        : 1.46 GiB\nDuration                         : 1h 38mn\nOverall bit rate                 : 2 115 Kbps\nWriting application              : VirtualDubMod 1.5.10.2 (build 2540/release)\nWriting library                  : VirtualDubMod build 2540/release\n\nVideo\nID                               : 0\nFormat                           : MPEG-4 Visual\nFormat profile                   : Streaming Video@L1\nFormat settings, BVOP            : Yes\nFormat settings, QPel            : No\nFormat settings, GMC             : No warppoints\nFormat settings, Matrix          : Custom\nCodec ID                         : XVID\nCodec ID/Hint                    : XviD\nDuration                         : 1h 38mn\nBit rate                         : 1 721 Kbps\nWidth                            : 720 pixels\nHeight                           : 400 pixels\nDisplay aspect ratio             : 16/9\nFrame rate                       : 25.000 fps\nResolution                       : 24 bits\nColorimetry                      : 4:2:0\nScan type                        : Progressive\nBits/(Pixel*Frame)               : 0.239\nStream size                      : 1.19 GiB (81%)\nWriting library                  : XviD 1.2.1 (UTC 2008-12-04)\n\nAudio\nID                               : 1\nFormat                           : AC-3\nFormat/Info                      : Audio Coding 3\nCodec ID                         : 2000\nDuration                         : 1h 38mn\nBit rate mode                    : Constant\nBit rate                         : 384 Kbps\nChannel(s)                       : 6 channels\nChannel positions                : Front: L C R, Surround: L R, LFE\nSampling rate                    : 48.0 KHz\nStream size                      : 272 MiB (18%)\nAlignment                        : Split accross interleaves\nInterleave, duration             : 40 ms (1.00 video frame)\nInterleave, preload duration     : 500 ms\n\n\n \nWeblink : &lt;a href=&quot; http://www.moviemeter.nl/film/49471&quot; rel=&quot;nofollow&quot; target=&quot;_NEW&quot;&gt; http://www.moviemeter.nl/film/49471&lt;/a&gt;\nWeblink : &lt;a href=&quot; http://www.imdb.com/title/tt0435761&quot; rel=&quot;nofollow&quot; target=&quot;_NEW&quot;&gt; http://www.imdb.com/title/tt0435761&lt;/a&gt; \n\n*****************************************\n\nBrought to you by \n2Lions Team\n\nmeer zien??\nKom dan eens kijken op ons Forum \n                     &lt;a href=&quot;\nhttp://www.2lions-site.nl&quot; rel=&quot;nofollow&quot; target=&quot;_NEW&quot;&gt;\nhttp://www.2lions-site.nl&lt;/a&gt;  \n\n2Lions the site to be for all your Dutch MOVIES and more\n\n******************************************\n\n\nDON T HIT AND RUN Niet gelijk afhaken als de FILM binnen is blijf seeden. \n\nDon`t quit after you finished the download, but keep seeding\n\n\nThere are fake torrents from uploaders who use our team name.\nThose are not ours, or members from our team.\nWe 2Lions-Team are not responsible for the fake posts on our name\n\nWij 2Lions-Team zijn niet verantwoordelijk voor die zieke FAKE posten die op onze naam worden gedaan\n\nPlease check our site !!!\nTo the fakers Get a Live\n \n\n\n \n","torrent":{"xt":"urn:btih:153a5c938c4a9c96b4b543903ec30f04acce9c69","amp;dn":"Toy+Story+3+%282010%29+%28DIVX%29%28R5%29%28AC+3%29%28NL+SUBS+SRT%29+2Lions-Team","amp;tr":["udp%3A%2F%2Ftracker.openbittorrent.com%3A80","udp%3A%2F%2Fopen.demonii.com%3A1337","udp%3A%2F%2Ftracker.coppersurfer.tk%3A6969","udp%3A%2F%2Fexodus.desync.com%3A6969"],"infoHash":"153a5c938c4a9c96b4b543903ec30f04acce9c69","infoHashBuffer":{"type":"Buffer","data":[21,58,92,147,140,74,156,150,180,181,67,144,62,195,15,4,172,206,156,105]},"announce":[],"urlList":[]}}